<svg width="179" height="43" viewBox="0 0 179 43" fill="none" xmlns="http://www.w3.org/2000/svg">
<path d="M2.52841 39H8.67898V26.983H21.1648V39H27.3011V9.90909H21.1648V21.9119H8.67898V9.90909H2.52841V39ZM42.1165 39.4261C48.7358 39.4261 52.8551 34.8949 52.8551 28.1761C52.8551 21.4148 48.7358 16.8977 42.1165 16.8977C35.4972 16.8977 31.3778 21.4148 31.3778 28.1761C31.3778 34.8949 35.4972 39.4261 42.1165 39.4261ZM42.1449 34.7386C39.0909 34.7386 37.5284 31.9403 37.5284 28.1335C37.5284 24.3267 39.0909 21.5142 42.1449 21.5142C45.142 21.5142 46.7045 24.3267 46.7045 28.1335C46.7045 31.9403 45.142 34.7386 42.1449 34.7386ZM68.3949 17.1818H64.2898V11.9545H58.2386V17.1818H55.2557V21.7273H58.2386V33.0909C58.2102 37.3665 61.1222 39.483 65.5114 39.2983C67.0739 39.2415 68.1818 38.929 68.7926 38.7301L67.8409 34.2273C67.5426 34.2841 66.9034 34.4261 66.3352 34.4261C65.1278 34.4261 64.2898 33.9716 64.2898 32.2955V21.7273H68.3949V17.1818ZM82.0455 39.4261C87.4432 39.4261 91.0795 36.7983 91.9318 32.75L86.3352 32.3807C85.7244 34.0426 84.1619 34.9091 82.1449 34.9091C79.1193 34.9091 77.2017 32.9062 77.2017 29.6534V29.6392H92.0597V27.9773C92.0597 20.5625 87.571 16.8977 81.804 16.8977C75.3835 16.8977 71.2216 21.4574 71.2216 28.1903C71.2216 35.108 75.3267 39.4261 82.0455 39.4261ZM77.2017 25.8892C77.3295 23.4034 79.2188 21.4148 81.9034 21.4148C84.5312 21.4148 86.3494 23.2898 86.3636 25.8892H77.2017ZM102.06 9.90909H96.0085V39H102.06V9.90909ZM116.278 39H122.429V29.5682H127.599C134.29 29.5682 138.182 25.5767 138.182 19.767C138.182 13.9858 134.361 9.90909 127.756 9.90909H116.278V39ZM122.429 24.6392V14.9375H126.577C130.128 14.9375 131.847 16.8693 131.847 19.767C131.847 22.6506 130.128 24.6392 126.605 24.6392H122.429ZM151.655 39.4261C157.053 39.4261 160.689 36.7983 161.541 32.75L155.945 32.3807C155.334 34.0426 153.771 34.9091 151.754 34.9091C148.729 34.9091 146.811 32.9062 146.811 29.6534V29.6392H161.669V27.9773C161.669 20.5625 157.18 16.8977 151.413 16.8977C144.993 16.8977 140.831 21.4574 140.831 28.1903C140.831 35.108 144.936 39.4261 151.655 39.4261ZM146.811 25.8892C146.939 23.4034 148.828 21.4148 151.513 21.4148C154.141 21.4148 155.959 23.2898 155.973 25.8892H146.811ZM177.223 17.1818H173.118V11.9545H167.067V17.1818H164.084V21.7273H167.067V33.0909C167.038 37.3665 169.95 39.483 174.339 39.2983C175.902 39.2415 177.01 38.929 177.621 38.7301L176.669 34.2273C176.371 34.2841 175.732 34.4261 175.163 34.4261C173.956 34.4261 173.118 33.9716 173.118 32.2955V21.7273H177.223V17.1818Z" fill="#FFBB11"/>
</svg>
