<svg width="40" height="40" viewBox="0 0 40 40" fill="none" xmlns="http://www.w3.org/2000/svg">
<path d="M38.3333 5.00004C36.7373 6.12583 34.9701 6.98689 33.1 7.55004C32.0962 6.39589 30.7622 5.57786 29.2783 5.20658C27.7945 4.8353 26.2325 4.9287 24.8034 5.47412C23.3744 6.01955 22.1474 6.9907 21.2883 8.25623C20.4292 9.52176 19.9795 11.0206 20 12.55V14.2167C17.071 14.2926 14.1687 13.6431 11.5516 12.3258C8.93453 11.0085 6.68382 9.06443 4.99996 6.6667C4.99996 6.6667 -1.66671 21.6667 13.3333 28.3334C9.90084 30.6633 5.81189 31.8316 1.66663 31.6667C16.6666 40 35 31.6667 35 12.5C34.9984 12.0358 34.9538 11.5727 34.8666 11.1167C36.5676 9.43919 37.768 7.32122 38.3333 5.00004Z" stroke="#111111" stroke-width="2" stroke-linecap="round" stroke-linejoin="round"/>
</svg>
